<?xml version="1.0" encoding="UTF-8" standalone="no"?>
<svg
   xmlns:dc="http://purl.org/dc/elements/1.1/"
   xmlns:cc="http://creativecommons.org/ns#"
   xmlns:rdf="http://www.w3.org/1999/02/22-rdf-syntax-ns#"
   xmlns:svg="http://www.w3.org/2000/svg"
   xmlns="http://www.w3.org/2000/svg"
   xmlns:sodipodi="http://sodipodi.sourceforge.net/DTD/sodipodi-0.dtd"
   xmlns:inkscape="http://www.inkscape.org/namespaces/inkscape"
   version="1.1"
   id="Layer_1"
   x="0px"
   y="0px"
   viewBox="0 0 1023.9999 1024"
   enable-background="new 0 0 595.28 841.89"
   xml:space="preserve"
   sodipodi:docname="black.svg"
   width="1024"
   height="1024"
   inkscape:version="1.0.1 (c497b03c, 2020-09-10)"><metadata
   id="metadata13"><rdf:RDF><cc:Work
       rdf:about=""><dc:format>image/svg+xml</dc:format><dc:type
         rdf:resource="http://purl.org/dc/dcmitype/StillImage" /><dc:title /></cc:Work></rdf:RDF></metadata><defs
   id="defs11" /><sodipodi:namedview
   pagecolor="#ffffff"
   bordercolor="#666666"
   borderopacity="1"
   objecttolerance="10"
   gridtolerance="10"
   guidetolerance="10"
   inkscape:pageopacity="0"
   inkscape:pageshadow="2"
   inkscape:window-width="1344"
   inkscape:window-height="795"
   id="namedview9"
   showgrid="false"
   inkscape:zoom="0.5606433"
   inkscape:cx="490.2967"
   inkscape:cy="513.20532"
   inkscape:window-x="0"
   inkscape:window-y="23"
   inkscape:window-maximized="1"
   inkscape:current-layer="XMLID_1_"
   inkscape:document-rotation="0" />
<g
   id="XMLID_1_"
   transform="matrix(4.484521,0,0,4.484521,-822.77058,-1375.9811)"
   style="fill:#000000">
	<path
   id="XMLID_6_"
   d="m 237.915,353.986 c -0.142,-7.109 5.177,-13.435 12.38,-14.339 l 73.68,-9.242 c 7.698,-0.966 14.786,4.543 15.752,12.241 0.7,5.582 -2.108,11.137 -6.634,14.146 -0.374,0.287 -0.333,0.824 -0.275,1.283 l 14.337,114.298 c 0.067,0.537 0.255,1.131 0.748,1.327 5.067,1.629 9.023,6.06 9.726,11.665 0.864,6.885 -3.458,13.268 -9.887,15.234 -0.966,0.329 -1.958,0.597 -2.991,0.726 l -72.578,9.104 c -7.389,0.927 -14.634,-3.711 -16.167,-10.999 -0.895,-4.259 0.257,-8.394 2.696,-11.533 0.149,-0.199 0.309,-0.388 0.468,-0.579 0.131,-0.152 0.253,-0.31 0.391,-0.457 0.428,-0.469 0.889,-0.908 1.378,-1.317 0.511,-0.481 0.805,-1.146 0.717,-1.847 l -4.914,-39.174 c -0.002,-0.01 -0.006,-0.019 -0.008,-0.028 -0.361,-2.024 -2.778,-3.389 -5.4,-3.057 l -63.187,6.39 c -2.574,0.323 -4.563,2.114 -4.678,4.333 l 0,25.92375 c 0,37.415 22.02325,57.08525 57.08525,57.08525 h 114.1705 c 34.469,0 57.08525,-19.98325 57.08525,-57.08525 v -114.1705 c 0,-29.902 -15.10325,-57.08525 -57.08525,-57.08525 h -114.1705 c -34.764,0 -57.08525,19.63725 -57.08525,57.08525 l 0,49.24875 c 0.043,2.113 2.453,3.311 4.726,3.036 l 59.747,-6.588 c 1.24,-0.155 2.302,-0.716 3.035,-1.586 0.657,-0.778 0.956,-1.711 0.85,-2.627 -0.001,-0.01 0.001,-0.02 0,-0.03 h 0.003 l -4.659,-37.141 c -0.048,-0.384 -0.094,-0.848 -0.433,-1.025 -1.823,-0.803 -3.457,-2.012 -4.817,-3.499 -2.132,-2.135 -3.535,-4.838 -3.937,-8.046 z"
   inkscape:connector-curvature="0"
   style="fill:#000000"
   sodipodi:nodetypes="cccccccccccccccccccccccsssssssscccccccccccc" />
	<g
   id="XMLID_52_"
   style="fill:#000000">
		<path
   id="XMLID_11_"
   d="m 258.186,368.92 c -1.169,0 -2.179,-0.874 -2.321,-2.062 -0.153,-1.282 0.763,-2.446 2.046,-2.599 l 63.452,-7.558 c 1.29,-0.148 2.446,0.765 2.599,2.046 0.153,1.282 -0.763,2.446 -2.046,2.599 l -63.452,7.558 c -0.093,0.01 -0.187,0.016 -0.278,0.016 z"
   inkscape:connector-curvature="0"
   style="fill:#000000" />
	</g>
	<g
   id="XMLID_53_"
   style="fill:#000000">
		<path
   id="XMLID_5_"
   d="m 273.096,484.717 c -1.169,0 -2.179,-0.874 -2.321,-2.062 -0.153,-1.282 0.763,-2.446 2.046,-2.599 l 63.454,-7.558 c 1.286,-0.145 2.446,0.764 2.599,2.046 0.153,1.282 -0.763,2.446 -2.046,2.599 l -63.454,7.558 c -0.093,0.011 -0.187,0.016 -0.278,0.016 z"
   inkscape:connector-curvature="0"
   style="fill:#000000" />
	</g>
</g>
</svg>
