<?xml version="1.0" encoding="UTF-8" standalone="no"?>
<svg
   xmlns:dc="http://purl.org/dc/elements/1.1/"
   xmlns:cc="http://creativecommons.org/ns#"
   xmlns:rdf="http://www.w3.org/1999/02/22-rdf-syntax-ns#"
   xmlns:svg="http://www.w3.org/2000/svg"
   xmlns="http://www.w3.org/2000/svg"
   xmlns:sodipodi="http://sodipodi.sourceforge.net/DTD/sodipodi-0.dtd"
   xmlns:inkscape="http://www.inkscape.org/namespaces/inkscape"
   version="1.1"
   id="Layer_1"
   x="0px"
   y="0px"
   viewBox="0 0 1023.9999 1024"
   enable-background="new 0 0 595.28 841.89"
   xml:space="preserve"
   sodipodi:docname="gray.svg"
   width="1024"
   height="1024"
   inkscape:version="1.0.1 (c497b03c, 2020-09-10)"><metadata
   id="metadata13"><rdf:RDF><cc:Work
       rdf:about=""><dc:format>image/svg+xml</dc:format><dc:type
         rdf:resource="http://purl.org/dc/dcmitype/StillImage" /><dc:title /></cc:Work></rdf:RDF></metadata><defs
   id="defs11" /><sodipodi:namedview
   pagecolor="#ffffff"
   bordercolor="#666666"
   borderopacity="1"
   objecttolerance="10"
   gridtolerance="10"
   guidetolerance="10"
   inkscape:pageopacity="0"
   inkscape:pageshadow="2"
   inkscape:window-width="1344"
   inkscape:window-height="795"
   id="namedview9"
   showgrid="false"
   inkscape:zoom="0.59577208"
   inkscape:cx="523.49209"
   inkscape:cy="476.73836"
   inkscape:window-x="0"
   inkscape:window-y="23"
   inkscape:window-maximized="1"
   inkscape:current-layer="XMLID_1_"
   inkscape:document-rotation="0" />
<g
   id="XMLID_1_"
   transform="matrix(4.484521,0,0,4.484521,-822.77058,-1375.9811)"
   style="fill:#000000">
	<path
   id="XMLID_6_"
   d="m 237.915,353.986 c -0.142,-7.109 5.177,-13.435 12.38,-14.339 l 73.68,-9.242 c 7.698,-0.966 14.786,4.543 15.752,12.241 0.7,5.582 -2.108,11.137 -6.634,14.146 -0.374,0.287 -0.333,0.824 -0.275,1.283 l 14.337,114.298 c 0.067,0.537 0.255,1.131 0.748,1.327 5.067,1.629 9.023,6.06 9.726,11.665 0.864,6.885 -3.458,13.268 -9.887,15.234 -0.966,0.329 -1.958,0.597 -2.991,0.726 l -72.578,9.104 c -7.389,0.927 -14.634,-3.711 -16.167,-10.999 -0.895,-4.259 0.257,-8.394 2.696,-11.533 0.149,-0.199 0.309,-0.388 0.468,-0.579 0.131,-0.152 0.253,-0.31 0.391,-0.457 0.428,-0.469 0.889,-0.908 1.378,-1.317 0.511,-0.481 0.805,-1.146 0.717,-1.847 l -4.914,-39.174 c -0.002,-0.01 -0.006,-0.019 -0.008,-0.028 -0.361,-2.024 -2.778,-3.389 -5.4,-3.057 l -63.187,6.39 c -2.574,0.323 -4.563,2.114 -4.678,4.333 l 0,25.92375 c 0,37.415 22.02325,57.08525 57.08525,57.08525 h 114.1705 c 34.469,0 57.08525,-19.98325 57.08525,-57.08525 v -114.1705 c 0,-29.902 -15.10325,-57.08525 -57.08525,-57.08525 h -114.1705 c -34.764,0 -57.08525,19.63725 -57.08525,57.08525 l 0,49.24875 c 0.043,2.113 2.453,3.311 4.726,3.036 l 59.747,-6.588 c 1.24,-0.155 2.302,-0.716 3.035,-1.586 0.657,-0.778 0.956,-1.711 0.85,-2.627 -0.001,-0.01 0.001,-0.02 0,-0.03 h 0.003 l -4.659,-37.141 c -0.048,-0.384 -0.094,-0.848 -0.433,-1.025 -1.823,-0.803 -3.457,-2.012 -4.817,-3.499 -2.132,-2.135 -3.535,-4.838 -3.937,-8.046 z"
   inkscape:connector-curvature="0"
   style="fill:#333333;fill-opacity:1"
   sodipodi:nodetypes="cccccccccccccccccccccccsssssssscccccccccccc" />
	<g
   id="XMLID_52_"
   style="fill:#333333;fill-opacity:1">
		<path
   id="XMLID_11_"
   d="m 258.186,368.92 c -1.169,0 -2.179,-0.874 -2.321,-2.062 -0.153,-1.282 0.763,-2.446 2.046,-2.599 l 63.452,-7.558 c 1.29,-0.148 2.446,0.765 2.599,2.046 0.153,1.282 -0.763,2.446 -2.046,2.599 l -63.452,7.558 c -0.093,0.01 -0.187,0.016 -0.278,0.016 z"
   inkscape:connector-curvature="0"
   style="fill:#333333;fill-opacity:1" />
	</g>
	<g
   id="XMLID_53_"
   style="fill:#333333;fill-opacity:1">
		<path
   id="XMLID_5_"
   d="m 273.096,484.717 c -1.169,0 -2.179,-0.874 -2.321,-2.062 -0.153,-1.282 0.763,-2.446 2.046,-2.599 l 63.454,-7.558 c 1.286,-0.145 2.446,0.764 2.599,2.046 0.153,1.282 -0.763,2.446 -2.046,2.599 l -63.454,7.558 c -0.093,0.011 -0.187,0.016 -0.278,0.016 z"
   inkscape:connector-curvature="0"
   style="fill:#333333;fill-opacity:1" />
	</g>
<path
   style="fill:#333333;stroke-width:1.78367;fill-opacity:1"
   d="M 219.42902,1021.4089 C 120.67375,1011.8818 48.420714,960.06699 18.77711,877.51544 3.951115,836.22802 1.6501253,815.33771 1.6072295,721.63301 l -0.034822,-76.06692 6.1103388,-5.36494 c 3.3606867,-2.95072 8.3772457,-5.81766 11.1479077,-6.37099 2.770663,-0.55333 69.774734,-7.53331 148.897936,-15.51107 125.94726,-12.69891 144.47239,-14.20511 148.77563,-12.09636 10.50623,5.14846 10.54394,5.31822 22.38782,100.77784 l 11.09837,89.45082 -9.22868,10.35435 c -12.21385,13.70362 -16.91161,25.91591 -17.09563,44.44166 -0.12628,12.72095 0.50651,15.62436 5.70933,26.19281 10.36169,21.04755 30.1785,34.46801 53.90135,36.50335 9.07265,0.77841 324.12331,-37.61994 346.5359,-42.23578 25.52548,-5.25693 44.34625,-23.46496 50.64723,-48.99832 7.07844,-28.6838 -7.44778,-58.86918 -34.58448,-71.86632 l -10.32475,-4.94505 -32.62442,-259.34241 -32.62441,-259.3424 8.76712,-8.36207 c 11.05743,-10.54655 17.19842,-20.98621 20.94312,-35.60319 9.53576,-37.22171 -17.91058,-75.48626 -55.9433,-77.99383 -8.56814,-0.56491 -60.55362,5.3151 -182.89271,20.68678 -187.14626,23.51458 -181.29062,22.42805 -196.90707,36.53658 -3.90532,3.52821 -9.79701,11.44622 -13.09266,17.59556 -5.36762,10.01544 -6.06722,12.98491 -6.71311,28.49395 -0.67517,16.21164 -0.38662,18.02797 4.53431,28.54376 5.74842,12.28411 18.63765,26.42395 28.82378,31.62054 l 6.48855,3.31019 10.28381,81.78718 c 5.65609,44.98293 10.26537,85.0585 10.24281,89.05682 -0.0389,6.88962 -3.16954,11.7566 -10.03021,15.59298 -1.07949,0.60362 -64.04434,7.95714 -139.92189,16.34112 C 9.0026717,490.93865 7.7041789,491.00752 3.3423802,482.85743 2.2180907,480.75667 1.5843282,433.14661 1.6050847,352.34678 1.6309416,251.69166 2.1700717,221.42074 4.1882724,207.30672 21.067935,89.261081 91.485516,19.668585 210.01803,3.8886729 c 29.01604,-3.86282666 575.92059,-3.79896818 605.44003,0.070693 58.9737,7.7307781 102.13218,27.2738821 137.88595,62.4377961 40.73401,40.061998 62.74139,91.766218 68.46559,160.853358 2.4208,29.21787 2.3451,542.34879 -0.084,570.44942 -11.3666,131.48313 -89.47032,210.89186 -220.043,223.71946 -23.07525,2.267 -558.74625,2.2573 -582.25341,-0.011 z"
   id="path106"
   transform="matrix(0.22298926,0,0,0.22298926,183.469,306.829)" /><path
   style="fill:#333333;stroke-width:1.78367;fill-opacity:1"
   d="m 329.07153,274.39071 c -2.07013,-2.07013 -3.76387,-4.96784 -3.76387,-6.43937 0,-3.24334 6.27038,-9.81095 9.36424,-9.80812 1.22627,0.001 66.34687,-7.65253 144.71244,-17.0081 134.29826,-16.03303 142.67423,-16.83694 145.81464,-13.99492 4.18737,3.78952 4.28335,9.98738 0.21037,13.58451 -2.35697,2.08159 -36.97562,6.76372 -141.35548,19.11814 -76.02873,8.99877 -141.15555,16.80023 -144.72626,17.33657 -5.07326,0.76203 -7.31485,0.15252 -10.25608,-2.78871 z"
   id="path931"
   transform="matrix(0.22298926,0,0,0.22298926,183.469,306.829)" /><path
   style="fill:#333333;stroke-width:1.78367;fill-opacity:1"
   d="m 395.88984,794.0052 c -4.08725,-4.08725 -3.48904,-10.95489 1.21035,-13.89511 2.61999,-1.63922 52.00312,-8.18441 142.24731,-18.8533 76.02873,-8.98831 140.76745,-16.78126 143.86382,-17.31766 4.21607,-0.73038 6.56753,-0.0375 9.36424,2.7592 4.55186,4.55186 4.70053,7.55155 0.61307,12.36955 -2.85396,3.36402 -15.42496,5.13908 -146.70647,20.71534 -78.97178,9.36983 -144.53104,17.03354 -145.68724,17.03047 -1.15619,-0.003 -3.36348,-1.26689 -4.90508,-2.80849 z"
   id="path933"
   transform="matrix(0.22298926,0,0,0.22298926,183.469,306.829)" /><path
   style="fill:#333333;stroke-width:1.67849;fill-opacity:1"
   d="m 302.7701,1021.2963 c -91.36256,-1.0926 -97.40921,-1.3541 -113.29836,-4.8988 C 92.488764,994.76159 31.189649,936.51544 10.488173,846.32813 8.5188742,837.74876 6.5664735,829.59628 6.1495046,828.21152 4.3022158,822.07666 3.1588789,778.47176 3.1588789,714.15421 V 644.577 l 6.9698951,-4.89911 c 6.721393,-4.72444 8.546646,-5.06502 51.194075,-9.55291 24.323298,-2.55959 47.623131,-5.06771 51.777401,-5.57361 4.15427,-0.50588 11.32984,-1.30132 15.9457,-1.76762 4.61586,-0.4663 11.79142,-1.19489 15.94569,-1.61908 4.15428,-0.4242 13.21814,-1.24631 20.14193,-1.8269 6.92379,-0.58061 25.80685,-2.49514 41.96236,-4.2545 16.15551,-1.75936 36.52487,-3.6783 45.26526,-4.26428 8.74039,-0.586 16.50162,-1.44243 17.24714,-1.9032 3.11933,-1.92785 44.64395,-2.52667 48.0698,-0.69321 7.61461,4.07523 9.97637,14.62457 17.87308,79.83467 2.45945,20.30978 4.88064,38.05986 5.38041,39.44462 0.49979,1.38475 0.75281,4.89625 0.56228,7.80333 -0.19054,2.90707 0.3589,5.7215 1.22096,6.25429 0.86207,0.53279 1.20539,2.86244 0.76292,5.177 -0.44245,2.31457 -0.23275,5.54272 0.46599,7.17366 0.69874,1.63095 1.10691,5.02541 0.90704,7.54326 -0.19986,2.51786 0.13159,5.37878 0.73654,6.35761 0.60494,0.97885 1.44092,7.18992 1.8577,13.80236 0.41677,6.61246 1.08342,12.3483 1.48144,12.7463 0.39801,0.39802 -2.64027,4.66118 -6.75174,9.47371 -4.11147,4.81253 -6.98037,9.24508 -6.37532,9.85011 0.60503,0.60504 0.17706,1.10007 -0.95105,1.10007 -1.1281,0 -4.06889,4.3431 -6.53509,9.65134 -3.90429,8.40365 -4.48901,11.82123 -4.52299,26.43628 -0.0351,15.075 0.44527,17.77121 4.71489,26.46615 9.06778,18.46624 28.27889,33.25474 46.44016,35.74917 7.52988,1.03421 24.97585,1.02234 26.75713,-0.0183 0.51592,-0.30138 6.98061,-1.06271 14.36598,-1.69188 7.38538,-0.62915 18.71521,-1.87831 25.17742,-2.77594 6.4622,-0.89762 15.90373,-2.02878 20.98117,-2.51368 5.07745,-0.48488 17.54027,-1.9757 27.69516,-3.31293 10.15489,-1.33722 21.29794,-2.73826 24.76234,-3.11344 3.46439,-0.37519 9.12931,-1.03485 12.5887,-1.46596 3.4594,-0.43109 12.33239,-1.29882 19.71776,-1.92829 7.38538,-0.62945 14.08648,-1.78912 14.89137,-2.57701 0.80487,-0.7879 2.36788,-1.08546 3.47336,-0.66124 3.18044,1.22045 151.48375,-17.692 167.52851,-21.36414 4.38507,-1.00361 7.97285,-2.63062 7.97285,-3.61558 0,-0.98496 0.4897,-1.30112 1.08823,-0.70258 1.89093,1.89092 17.30808,-7.60081 23.52747,-14.48492 3.28487,-3.63596 8.34284,-11.6136 11.23994,-17.72812 4.75702,-10.03998 5.26747,-12.66596 5.26747,-27.0983 0,-14.66197 -0.45358,-16.90236 -5.49558,-27.14409 -5.55323,-11.28022 -22.49525,-29.26368 -25.70192,-27.28184 -0.84323,0.52113 -1.53314,0.26234 -1.53314,-0.57511 0,-0.83745 -3.02129,-2.88504 -6.71398,-4.55021 -3.69269,-1.66517 -6.69704,-3.47937 -6.67633,-4.03153 0.11918,-3.17562 -32.36556,-261.60952 -33.14512,-263.6883 -0.51929,-1.38476 -0.78064,-4.57779 -0.58076,-7.09563 0.19986,-2.51786 -0.18482,-5.46493 -0.85484,-6.54905 -0.67004,-1.08414 -1.40826,-4.31135 -1.64051,-7.17157 -0.4041,-4.97655 -1.21881,-12.09926 -2.9472,-25.76652 -0.43748,-3.45939 -1.12693,-9.68875 -1.5321,-13.84302 -0.40517,-4.15428 -5.94351,-49.2318 -12.30742,-100.17227 l -11.57075,-92.61905 10.1939,-10.61588 c 9.87052,-10.27912 15.10248,-18.08553 16.32577,-24.35903 0.3246,-1.6647 1.27015,-4.53738 2.10122,-6.38372 0.83108,-1.84634 1.4823,-10.53255 1.44717,-19.30268 -0.0552,-13.79499 -0.67149,-17.19929 -4.56883,-25.23998 -4.58593,-9.46128 -16.05503,-24.28931 -17.59559,-22.74875 -0.46647,0.46647 -2.07618,-0.59831 -3.57712,-2.36618 -1.50095,-1.76788 -3.84401,-3.43523 -5.20678,-3.70524 -1.36278,-0.27 -3.43963,-1.38084 -4.61523,-2.46852 -1.1756,-1.08768 -6.35463,-2.92136 -11.50893,-4.07485 -7.8049,-1.74666 -14.04808,-1.62547 -37.34714,0.72495 -15.38659,1.55221 -29.10861,2.89773 -30.49337,2.99004 -1.38476,0.0923 -7.42734,0.85741 -13.42796,1.70022 -6.00061,0.84281 -16.14936,1.93985 -22.55275,2.43788 -6.4034,0.49803 -12.25166,1.28197 -12.99614,1.74208 -0.74448,0.46011 -6.78706,1.21543 -13.42796,1.67849 -6.64089,0.46306 -12.67639,1.21401 -13.41221,1.66877 -0.73581,0.45476 -6.44884,1.18698 -12.69562,1.62717 -6.24677,0.44018 -12.86841,1.27271 -14.71476,1.85007 -3.88712,1.2155 -12.45431,2.05436 -21.26467,2.08214 -3.38704,0.0108 -6.64936,0.81405 -7.24959,1.78526 -0.60024,0.97121 -1.76525,1.34934 -2.58891,0.8403 -1.74229,-1.0768 -112.11578,12.71774 -141.78173,17.71997 -31.65008,5.33678 -36.50482,7.13518 -46.59289,17.26004 -4.83858,4.85623 -11.02183,12.94806 -13.74054,17.98185 -4.43336,8.20849 -5.017,11.08242 -5.65951,27.86847 -0.66365,17.33766 -0.40016,19.40694 3.57739,28.09504 2.36159,5.1584 6.23018,11.31529 8.59688,13.68198 2.36669,2.36669 4.30308,4.89766 4.30308,5.62436 0,1.79334 11.36203,10.80147 17.86269,14.16203 5.48121,2.83355 5.3618,2.48201 7.94509,23.39365 0.42796,3.46439 1.1834,9.50697 1.67873,13.42795 0.49534,3.92098 1.0102,8.26204 1.14413,9.64679 0.13394,1.38476 2.76421,23.66677 5.84503,49.51558 10.16595,85.29479 9.65515,78.94768 6.79809,84.47266 -3.05098,5.89994 -8.54886,8.06758 -24.43154,9.63263 -6.49371,0.63985 -11.80673,1.63774 -11.80673,2.21749 0,0.57973 -3.39895,0.78375 -7.55323,0.45334 -4.15427,-0.33039 -7.55322,0.0999 -7.55322,0.95607 0,0.85625 -2.2567,1.22561 -5.01489,0.82079 -2.75818,-0.40482 -6.34597,-0.17302 -7.97285,0.51511 -1.62688,0.68813 -5.71357,1.09795 -9.08154,0.91072 -3.36798,-0.18726 -6.56008,0.36579 -7.09355,1.22897 -0.53346,0.86319 -2.68745,1.28521 -4.78661,0.93786 -2.09918,-0.34736 -26.09869,1.98318 -53.33226,5.17898 -27.23357,3.19579 -53.29219,6.13102 -57.90805,6.52273 -27.028026,2.29366 -52.874555,5.25936 -52.887229,6.06844 -0.0081,0.5147 -9.638423,1.16409 -21.400802,1.44312 C 14.467395,487.54361 9.1516499,487.12209 6.5158674,485.18321 3.2260296,482.76319 3.1478161,480.44358 2.6058327,369.22116 1.8798687,220.24342 3.4631738,196.52611 16.841617,155.97458 35.507543,99.396093 72.539697,55.49822 122.96767,30.172877 140.341,21.447849 170.78733,11.621706 194.50722,7.0844477 l 20.14193,-3.8528469 h 297.93273 c 277.53288,0 299.00441,0.2025988 313.58425,2.9588867 8.60834,1.6273876 16.3504,2.5269639 17.20457,1.9990581 0.85418,-0.5279057 1.55304,-0.3272244 1.55304,0.4459585 0,0.7731829 5.47609,2.7979649 12.16908,4.4995159 79.14864,20.12185 139.08257,84.595337 157.05548,168.95134 8.0186,37.63513 7.858,30.85812 7.8328,330.56824 -0.022,260.04492 -0.2588,284.38109 -2.9417,302.12897 -15.9886,105.76845 -72.55487,171.71662 -169.12867,197.18003 -33.89017,8.9357 -35.81329,9.0106 -250.8864,9.7761 -109.85744,0.3909 -243.17185,0.1914 -296.25423,-0.4434 z"
   id="path937"
   transform="matrix(0.22298926,0,0,0.22298926,183.469,306.829)" /><path
   style="fill:#333333;stroke-width:1.67849;fill-opacity:1"
   d="m 302.7701,1021.2963 c -91.36256,-1.0926 -97.40921,-1.3541 -113.29836,-4.8988 C 92.375501,994.73631 31.213826,936.62078 10.488173,846.32813 8.5188742,837.74876 6.555261,829.59628 6.1245881,828.21152 4.2832002,822.29083 3.1588789,779.05091 3.1588789,714.15421 V 644.577 l 6.9605771,-4.89256 c 6.757068,-4.7495 8.474685,-5.05831 58.747298,-10.56186 28.482697,-3.11812 55.563336,-6.01072 60.179196,-6.42799 4.61586,-0.41726 12.16908,-1.17844 16.78494,-1.69151 4.61586,-0.51306 9.68285,-0.98035 11.25998,-1.03841 1.57712,-0.0581 20.08253,-1.90399 41.12311,-4.10201 21.04058,-2.19802 45.40682,-4.47176 54.14721,-5.05275 8.74039,-0.581 16.50162,-1.43335 17.24714,-1.89412 3.11933,-1.92785 44.64395,-2.52667 48.0698,-0.69321 7.74077,4.14274 8.71762,8.53969 18.84161,84.80961 8.09552,60.98844 8.09885,61.01625 8.09861,67.68775 -1e-4,3.0376 0.48766,6.31228 1.08391,7.27704 0.59625,0.96475 1.42992,7.15534 1.8526,13.75684 0.4227,6.60152 1.07446,12.3087 1.44839,12.68262 0.37392,0.37393 -2.32233,4.26567 -5.9917,8.64832 -3.66936,4.38265 -6.67156,8.80778 -6.67156,9.83363 0,1.02585 -0.79712,1.86518 -1.77135,1.86518 -0.97425,0 -3.78019,4.3431 -6.23541,9.65134 -3.87232,8.37201 -4.47186,11.87627 -4.523,26.43628 -0.0535,15.22069 0.39042,17.67176 4.76291,26.30075 6.2257,12.28629 18.77723,24.82218 30.89683,30.85836 8.5767,4.27163 11.39083,4.79034 26.3856,4.8634 14.82867,0.0722 26.69346,-0.76992 44.98891,-3.19337 12.93278,-1.71308 25.57401,-3.16992 26.34709,-3.03636 0.46159,0.0797 12.16908,-1.30123 26.01666,-3.06884 41.5762,-5.3071 44.28002,-5.62136 62.80634,-7.29989 6.84832,-0.62047 13.73574,-1.81544 15.30538,-2.65548 1.56963,-0.84003 3.23367,-1.14753 3.69789,-0.68333 1.033,1.03301 130.95818,-15.09294 156.35358,-19.40616 10.32028,-1.75282 18.89711,-4.07755 19.69661,-5.33872 0.77889,-1.22864 1.42773,-1.65206 1.44186,-0.94093 0.0535,2.69383 14.08239,-6.02961 21.2936,-13.24082 4.13616,-4.13616 9.91018,-12.58151 12.83115,-18.76741 4.80888,-10.18406 5.30862,-12.75423 5.28741,-27.1928 -0.0202,-13.75254 -0.64471,-17.28364 -4.54062,-25.67343 -4.81002,-10.3584 -23.45057,-30.73346 -26.4316,-28.89108 -0.93514,0.57794 -1.70026,0.36563 -1.70026,-0.47182 0,-0.83745 -3.02129,-2.88505 -6.71398,-4.55022 -3.69269,-1.66516 -6.74187,-4.23469 -6.77596,-5.71002 -0.0341,-1.47534 -7.56524,-61.21993 -16.73592,-132.76575 -9.17065,-71.54582 -16.99238,-132.72693 -17.38161,-135.95803 -0.38922,-3.23111 -1.16222,-9.27369 -1.7178,-13.42796 -0.55557,-4.15427 -1.33142,-10.38773 -1.72409,-13.85212 -0.39268,-3.4644 -1.06163,-9.12932 -1.48655,-12.58871 -0.42493,-3.45939 -1.26918,-11.1994 -1.87612,-17.20002 -0.60695,-6.00062 -6.19497,-51.04242 -12.41784,-100.09289 l -11.31429,-89.1827 10.16907,-10.7336 c 8.86091,-9.3528 15.36109,-19.29008 16.70726,-25.54153 0.22327,-1.03689 1.0753,-3.39589 1.89338,-5.24224 0.81806,-1.84634 1.48786,-10.15489 1.48844,-18.46343 8.7e-4,-12.97736 -0.65259,-16.50932 -4.63644,-25.06015 -4.54818,-9.76203 -15.93801,-25.37274 -17.42642,-23.88433 -0.41529,0.41529 -2.6918,-1.0398 -5.05889,-3.23355 -2.36708,-2.19375 -4.9641,-3.58055 -5.77114,-3.08178 -0.80702,0.49878 -1.46732,0.12806 -1.46732,-0.8238 0,-0.95187 -4.31464,-2.98496 -9.58806,-4.518 -7.49347,-2.1784 -12.90203,-2.53199 -24.75779,-1.61854 -20.18168,1.55494 -28.76803,2.40841 -37.8294,3.76017 -4.15427,0.61973 -8.11325,0.99959 -8.79773,0.84414 -0.68447,-0.15544 -6.34939,0.48311 -12.5887,1.41901 -6.23932,0.93591 -16.58336,2.10913 -22.98675,2.60716 -6.4034,0.49803 -12.25166,1.28196 -12.99614,1.74207 -0.74448,0.46012 -6.78706,1.21544 -13.42796,1.6785 -6.64089,0.46306 -12.67639,1.214 -13.41221,1.66876 -0.73581,0.45476 -6.44884,1.18699 -12.69562,1.62717 -6.24677,0.44018 -12.86841,1.27272 -14.71476,1.85007 -1.84634,0.57735 -5.62295,1.24115 -8.39247,1.47511 -2.76951,0.23395 -8.43443,0.84212 -12.58871,1.35148 -4.15427,0.50935 -8.6862,1.05063 -10.07096,1.20284 -1.38476,0.1522 -20.26782,2.43264 -41.96236,5.06764 -89.00524,10.81049 -124.18512,16.50904 -134.54435,21.79392 -9.10306,4.64404 -20.05354,16.44452 -25.80051,27.80319 -4.133,8.16874 -4.86105,11.81163 -5.49537,27.49719 -0.67126,16.59883 -0.38822,18.81717 3.45283,27.06173 5.96545,12.80448 19.54046,27.8905 30.02408,33.36601 6.44173,3.36449 6.15499,2.58519 8.78511,23.87598 0.42796,3.46439 1.1834,9.50697 1.67873,13.42795 0.49534,3.92098 1.0014,8.26204 1.12462,9.6468 0.1232,1.38475 2.01398,17.24653 4.20169,35.24838 10.93866,90.00935 11.22826,93.38844 8.46215,98.7375 -3.05229,5.90248 -8.54812,8.06973 -24.43275,9.63498 -6.49371,0.63986 -11.80673,1.69031 -11.80673,2.33432 0,0.644 -2.2567,0.8397 -5.01489,0.43488 -2.75819,-0.40482 -6.34597,-0.16941 -7.97285,0.52312 -1.62688,0.69254 -5.39387,1.09832 -8.37112,0.90175 -2.97723,-0.19658 -6.3653,0.23105 -7.52905,0.95028 -1.16374,0.71923 -4.56269,1.0969 -7.55323,0.83925 -2.99052,-0.25765 -6.23998,0.0277 -7.22101,0.63395 -0.98105,0.6063 -6.85368,1.42789 -13.0503,1.82573 -6.19661,0.39785 -30.14963,2.97248 -53.22893,5.7214 -23.07929,2.74892 -45.3613,5.2674 -49.51558,5.5966 -24.877059,1.97139 -53.713679,5.20625 -53.724809,6.02679 -0.0072,0.52703 -9.63751,1.19302 -21.400802,1.47999 C 14.391522,487.57124 9.1636149,487.1567 6.5158674,485.19769 3.2259705,482.76356 3.1479917,480.44301 2.6141256,369.08676 2.0108871,243.26047 3.2811463,209.73567 9.7032027,181.99124 20.995213,133.20771 38.765126,99.866825 70.142401,68.591878 101.72475,37.112529 136.81276,19.345105 190.21303,7.7920411 l 21.07913,-4.5604403 h 297.93273 c 243.50839,0 300.53896,0.4181533 312.19993,2.2890782 7.84696,1.2589929 16.2201,2.4594468 18.60698,2.6676751 2.38687,0.2082283 5.0305,0.7940763 5.87473,1.3018844 0.84422,0.5078083 7.57753,2.6071635 14.96291,4.6652345 35.90509,10.005617 63.789,26.376295 91.46318,53.698156 34.09146,33.657431 52.33068,68.310061 63.06848,119.823611 3.6431,17.47747 4.4824,27.633 5.9805,72.36398 2.3461,70.04894 0.8728,533.48947 -1.7555,552.2246 -2.6321,18.76201 -11.2923,52.94752 -17.2147,67.95369 -30.59123,77.51216 -95.67714,125.91819 -186.07055,138.38529 -14.24248,1.9643 -55.45643,2.5588 -217.31652,3.1349 -109.85744,0.3909 -243.17185,0.1914 -296.25423,-0.4434 z"
   id="path939"
   transform="matrix(0.22298926,0,0,0.22298926,183.469,306.829)" /><path
   style="fill:#333333;stroke-width:1.67849;fill-opacity:1"
   d="m 277.59269,1021.3344 c -79.26542,-1.3027 -83.68931,-1.8046 -119.46837,-13.5534 C 87.763692,984.67664 39.121974,936.9976 16.88262,869.33463 4.3288101,831.1398 3.1588789,817.98242 3.1588789,714.99344 v -70.41646 l 6.9270461,-4.86897 c 6.387002,-4.48939 9.200455,-5.11589 36.087627,-8.03586 16.038318,-1.74178 39.357432,-4.32416 51.820252,-5.73862 12.462816,-1.41447 26.248656,-2.91518 30.635196,-3.3349 4.38654,-0.41974 11.93976,-1.18903 16.78494,-1.70955 4.84518,-0.5205 9.9424,-1.00041 11.32716,-1.06645 1.38476,-0.066 19.89016,-1.90064 41.12311,-4.07689 21.23295,-2.17627 45.35961,-4.40286 53.6148,-4.94798 8.25519,-0.54513 15.6441,-1.38339 16.41982,-1.86281 0.77572,-0.47942 11.82501,-1.2698 24.55399,-1.75641 22.52299,-0.86104 23.26524,-0.77871 27.68058,3.0701 3.66548,3.19516 5.05036,6.69549 7.20944,18.22207 2.22754,11.89216 13.87131,97.06853 16.4059,120.01233 0.40794,3.69269 1.08525,9.35761 1.50516,12.58871 0.41991,3.2311 1.27208,11.49154 1.89371,18.35652 0.62163,6.86499 1.54124,13.1468 2.04358,13.9596 0.50233,0.81279 -2.18369,5.15069 -5.96894,9.63976 -3.78524,4.48908 -6.88226,8.97061 -6.88226,9.95896 0,0.98833 -0.79712,1.79698 -1.77135,1.79698 -0.97425,0 -3.71892,4.25404 -6.09928,9.45341 -3.69093,8.06203 -4.35113,11.95299 -4.48566,26.43628 -0.14989,16.13972 0.11095,17.4666 5.25369,26.72605 11.61961,20.92088 29.65966,33.78908 50.17868,35.79308 9.3685,0.91498 39.3138,-1.54494 64.34755,-5.28598 2.30793,-0.3449 9.10583,-1.10019 15.10645,-1.67841 6.00061,-0.57824 19.59642,-2.15816 30.21289,-3.51094 10.61648,-1.35278 21.94631,-2.76997 25.17742,-3.14931 3.2311,-0.37934 8.89601,-1.05789 12.5887,-1.50786 3.69269,-0.44998 11.80045,-1.25766 18.01726,-1.79483 6.21681,-0.53717 13.12588,-1.66961 15.35349,-2.51655 2.22761,-0.84693 4.38463,-1.20544 4.79339,-0.79669 0.80936,0.80937 107.23289,-12.21842 144.136,-17.64434 12.56374,-1.84726 25.02656,-4.25174 27.69515,-5.34328 2.66859,-1.09156 5.90446,-2.1953 7.19084,-2.45278 5.08656,-1.01815 20.0649,-12.88008 25.07727,-19.85968 10.00871,-13.93687 12.52463,-21.95383 12.52221,-39.90204 -0.002,-14.36207 -0.54602,-17.37713 -4.64925,-25.76383 -5.04887,-10.31953 -23.21522,-30.2239 -26.00892,-28.49729 -0.94982,0.58702 -1.72695,0.38213 -1.72695,-0.45532 0,-0.83745 -3.02129,-2.88505 -6.71398,-4.55022 -3.69269,-1.66516 -6.71397,-3.7442 -6.71397,-4.62005 0,-2.49325 -30.16493,-240.80436 -32.02786,-253.02881 -0.91446,-6.00062 -1.93191,-13.55384 -2.261,-16.78494 -0.32908,-3.23111 -1.04597,-9.27369 -1.59307,-13.42796 -0.92037,-6.98849 -1.70886,-13.10969 -3.35132,-26.01666 -0.35243,-2.76951 -1.14109,-9.94508 -1.7526,-15.94569 -0.61149,-6.00062 -6.2229,-51.48968 -12.46978,-101.08682 l -11.35797,-90.1766 8.82181,-8.71222 c 7.89008,-7.79207 21.01984,-28.29958 18.11858,-28.29958 -0.62877,0 -0.22707,-1.10388 0.89267,-2.45307 1.24991,-1.50606 2.12351,-8.79588 2.2629,-18.88306 0.20009,-14.48064 -0.29057,-17.5253 -4.13543,-25.66171 -5.00767,-10.59714 -14.093,-23.49892 -16.54777,-23.49892 -0.91738,0 -3.17861,-1.51064 -5.02496,-3.35699 -1.84634,-1.84634 -4.48997,-3.35699 -5.87473,-3.35699 -1.38476,0 -2.51774,-0.63442 -2.51774,-1.40983 0,-2.89856 -14.72101,-6.14199 -27.69515,-6.10199 -7.38538,0.0228 -21.7365,1.0076 -31.89139,2.1885 -10.15489,1.1809 -22.24005,2.49224 -26.85591,2.91409 -4.61586,0.42185 -10.10012,1.15295 -12.18725,1.62466 -2.0871,0.4717 -8.52023,1.23796 -14.29583,1.70278 -5.7756,0.46482 -18.41908,1.98867 -28.09662,3.38633 -9.67756,1.39765 -19.1062,2.53495 -20.95254,2.52734 -1.84635,-0.008 -7.88893,0.74767 -13.42796,1.67841 -5.53903,0.93074 -13.09225,2.03594 -16.78494,2.456 -3.69269,0.42006 -9.73527,1.11264 -13.42795,1.53906 -3.69269,0.42642 -7.84696,0.89832 -9.23172,1.04867 -22.46747,2.43933 -125.17186,15.84437 -140.15427,18.29302 -30.05754,4.91246 -36.83112,7.36248 -47.03465,17.01256 -4.82632,4.56454 -11.23092,12.90666 -14.2324,18.53806 -4.91224,9.21627 -5.54197,12.02549 -6.30515,28.1272 -0.7948,16.76846 -0.57077,18.47406 3.57846,27.24483 5.34134,11.29066 19.22504,27.00049 28.84348,32.63728 7.35396,4.3097 7.49514,4.65414 9.91477,24.19192 0.40015,3.2311 1.16038,9.27368 1.68937,13.42795 0.52899,4.15427 1.02771,8.68621 1.10826,10.07097 0.0806,1.38475 1.91513,17.24653 4.07684,35.24838 11.21928,93.42937 11.21468,93.37554 8.4201,98.77968 -2.92074,5.64809 -8.38575,7.86805 -23.62897,9.59841 -5.53903,0.62876 -10.81541,1.58112 -11.72528,2.11634 -0.90988,0.53521 -4.10112,0.76231 -7.09166,0.50466 -2.99052,-0.25765 -6.38947,0.12001 -7.55322,0.83925 -1.16374,0.71923 -4.56269,1.09689 -7.55323,0.83924 -2.99052,-0.25765 -6.3793,0.1138 -7.53061,0.82528 -1.15132,0.71155 -4.86995,1.09324 -8.26365,0.84822 -3.39371,-0.24505 -6.64907,0.32903 -7.23414,1.27568 -0.58507,0.94668 -1.9883,1.36645 -3.11829,0.93283 -1.12998,-0.43362 -25.08728,1.85297 -53.23843,5.0813 -28.15116,3.22833 -55.33819,6.23019 -60.41564,6.67078 -26.336066,2.2853 -48.115068,4.61772 -50.354827,5.39275 -1.384757,0.47917 -11.959271,1.23871 -23.498919,1.68789 C 13.921124,487.57056 9.225133,487.2444 6.5158674,485.22106 3.2255677,482.76379 3.1481072,480.43554 2.6166484,368.02062 2.0205008,241.92263 3.2379326,209.99171 9.7094036,181.99124 20.311057,136.12046 37.757833,101.89356 65.244719,73.042634 96.809354,39.911605 133.69957,20.50044 189.01138,7.9181825 l 20.60229,-4.6865817 301.28972,0.010838 c 277.36748,0.00997 302.46899,0.238818 316.14219,2.8821468 8.16886,1.57922 15.34442,2.7762434 15.94569,2.660052 0.60127,-0.1161921 2.22621,0.2748281 3.61097,0.8689325 1.38475,0.5941039 9.31564,3.0266949 17.62418,5.4057579 33.86426,9.696665 62.79175,27.186471 89.88441,54.344864 37.57919,37.670368 56.94947,80.255728 65.71717,144.478438 3.1752,23.2582 3.1795,574.62585 0,596.7047 -2.9493,20.51014 -9.8643,49.31285 -15.5835,64.90897 -25.25524,68.87018 -77.94754,116.04016 -151.57477,135.6893 -37.4834,10.0033 -33.45223,9.8498 -278.82742,10.6175 -123.70503,0.3871 -257.01943,0.1761 -296.25424,-0.4687 z"
   id="path941"
   transform="matrix(0.22298926,0,0,0.22298926,183.469,306.829)" /><path
   style="fill:#333333;stroke-width:1.67849;fill-opacity:1"
   d="m 236.46958,1019.4521 c -38.29493,-1.3389 -49.77212,-3.1835 -77.46467,-12.45 C 122.70966,994.85691 95.538663,978.42971 70.124483,953.26622 45.671653,929.0546 30.802366,905.53659 19.181098,872.69162 6.0408633,835.55362 4.0079706,814.49403 4.0022013,715.44707 l -0.00408,-69.96283 4.8162613,-3.42948 c 2.6489434,-1.88621 6.8651124,-4.20846 9.3692654,-5.16053 5.509369,-2.09466 86.843152,-11.28981 170.448842,-19.27 33.69577,-3.21628 69.19593,-6.69344 78.88923,-7.72704 9.69331,-1.0336 25.09831,-1.6205 34.23335,-1.30422 15.45419,0.53507 16.82301,0.86684 19.68454,4.77129 1.71058,2.33403 4.19622,10.90019 5.60105,19.30268 3.84472,22.99598 13.76056,96.93548 17.64346,131.56214 l 3.45968,30.85249 -5.48229,7.43791 c -3.01524,4.09086 -7.19208,9.58927 -9.28185,12.2187 -6.66547,8.38678 -9.2356,17.01115 -10.08295,33.83457 -0.74441,14.77936 -0.44202,16.97795 3.52793,25.64944 5.70338,12.45785 20.937,28.28841 32.85293,34.14035 8.89016,4.36597 10.60624,4.60629 32.05273,4.48885 15.28446,-0.0838 39.32216,-2.17384 73.85374,-6.42172 28.15674,-3.46369 59.88028,-7.31296 70.49676,-8.55396 122.30306,-14.29637 186.18864,-23.07604 201.69341,-27.71833 17.7678,-5.31989 32.21854,-18.28505 40.30721,-36.16353 3.10073,-6.8536 3.76766,-11.37148 3.82696,-25.92426 0.0621,-15.25683 -0.46459,-18.71373 -3.92153,-25.73548 -5.34152,-10.84964 -20.54039,-27.00022 -29.72665,-31.58807 -4.08999,-2.04264 -8.46592,-4.89808 -9.72429,-6.34543 -1.50695,-1.73325 -6.09413,-32.99883 -13.43801,-91.59174 -6.13255,-48.92811 -20.59898,-164.44074 -32.14765,-256.69472 l -20.99759,-167.73454 5.62816,-5.98962 c 9.23244,-9.8254 16.12427,-19.49425 20.02663,-28.09623 3.05637,-6.73712 3.68579,-11.22478 3.72658,-26.56972 0.0448,-16.825 -0.34745,-19.20818 -4.41949,-26.85591 -7.16467,-13.45606 -12.14465,-19.09858 -23.19088,-26.27628 -17.55996,-11.41022 -33.98369,-12.06514 -98.62059,-3.9326 -10.84577,1.3646 -56.73038,7.05089 -101.9658,12.63621 -151.86642,18.75127 -183.99491,23.5829 -196.76985,29.59111 -8.42567,3.9627 -20.27035,16.29964 -26.4402,27.53904 -4.58343,8.34946 -5.05777,10.75448 -5.62194,28.50449 -0.53939,16.96946 -0.17838,20.31671 2.89637,26.8559 4.65954,9.9096 15.77201,23.20816 26.5237,31.74156 4.79677,3.80709 9.07391,8.21203 9.50478,9.78877 1.51679,5.55058 2.76213,15.20812 10.21787,79.23831 9.65708,82.93554 9.96458,86.17183 8.67588,91.30643 -2.46322,9.8143 -6.09825,10.44814 -145.38278,25.35018 -39.2348,4.19773 -79.266894,8.55832 -88.960198,9.69021 -9.693304,1.1319 -27.408139,2.05799 -39.366299,2.05799 H 6.6724966 L 5.5026237,480.76321 C 3.6345382,474.06255 3.8308208,237.09545 5.7222936,215.56112 9.7746438,169.4253 26.18783,124.54481 51.096948,91.487916 82.804518,49.408792 123.489,24.900367 187.70981,9.1920216 L 209.22926,3.9283838 515.74667,4.5714373 C 855.35976,5.2839236 828.78096,4.3763302 865.68341,16.52082 c 34.35997,11.307769 60.28894,26.944778 85.11903,51.332809 33.20615,32.614991 51.05726,65.586401 62.75976,115.918991 6.973,29.99063 7.9166,78.80143 7.1528,370.00509 l -0.6691,255.13113 -3.7471,17.62419 c -7.9734,37.50229 -15.9428,60.19946 -29.17306,83.08546 -26.36629,45.60912 -65.3605,77.02603 -118.60798,95.56021 -32.11825,11.1797 -44.469,12.7893 -110.87572,14.45 -69.98989,1.7504 -469.93449,1.6148 -521.17246,-0.1766 z"
   id="path943"
   transform="matrix(0.22298926,0,0,0.22298926,183.469,306.829)" /><path
   style="fill:#333333;stroke-width:1.67849;fill-opacity:1"
   d="m 237.30883,1019.5094 c -39.22079,-1.3265 -48.5108,-2.7584 -75.59137,-11.6508 C 122.70539,995.04814 95.753871,978.89038 69.386478,952.50506 44.878656,927.98056 30.856026,905.68825 19.181098,872.69162 6.0447651,835.56465 4.0079734,814.48424 4.0022013,715.59293 3.9976477,637.57929 3.1136787,643.2237 16.191694,637.75936 28.338965,632.68389 254.52381,609.43648 293.3471,609.27315 c 24.7632,-0.10424 25.01373,-0.0676 28.07701,4.09111 1.7333,2.35315 4.20022,10.83134 5.61655,19.30268 3.77233,22.56298 13.71251,96.49727 17.67359,131.45484 l 3.48376,30.74518 -8.4796,11.21717 c -13.03536,17.24373 -15.54348,23.74096 -16.45947,42.63788 -0.73694,15.20298 -0.47879,16.95204 3.78991,25.67692 6.35278,12.98463 20.39125,27.62597 32.2399,33.62442 9.46157,4.78997 10.52387,4.94681 32.44155,4.7895 13.38543,-0.096 37.77323,-2.02082 59.58654,-4.70275 39.9532,-4.91224 89.52112,-10.92984 133.44029,-16.19982 103.93688,-12.47165 143.70467,-18.2016 155.69877,-22.43382 15.67024,-5.52939 30.33288,-19.36633 37.64378,-35.52392 3.08019,-6.80743 3.7495,-11.3559 3.8087,-25.88295 0.0613,-15.01161 -0.49159,-18.76763 -3.72901,-25.33776 -5.3194,-10.79542 -20.91413,-27.48845 -29.84821,-31.95034 -4.12901,-2.06213 -8.5368,-4.93353 -9.7951,-6.38088 -1.50049,-1.72595 -5.83795,-30.93507 -12.6041,-84.87776 C 720.258,614.28743 705.79982,498.85654 693.80269,403.00977 l -21.81297,-174.26686 7.99741,-8.98366 c 17.42528,-19.57421 23.42145,-35.61711 21.82435,-58.39152 -1.52458,-21.73998 -15.49207,-41.40385 -36.48662,-51.36699 -8.49344,-4.03063 -10.90963,-4.36932 -30.2129,-4.23507 -11.53965,0.0803 -31.17803,1.39426 -43.64085,2.92 -266.25595,32.59595 -301.50792,37.6039 -315.7129,44.85074 -8.78853,4.48357 -19.92631,16.17329 -25.96016,27.2466 -4.29453,7.88133 -4.84449,10.72348 -5.47476,28.29305 -0.69769,19.44881 -0.67726,19.57545 4.81754,29.88477 3.65357,6.85478 10.10189,14.65006 19.08314,23.0693 7.46072,6.99387 14.14422,13.70634 14.85219,14.9166 1.10979,1.89713 15.57101,119.9813 18.93568,154.62062 2.0831,21.44554 0.2147,23.44956 -26.09765,27.99171 -14.17367,2.44673 -37.6195,5.10353 -157.77846,17.87895 -17.07867,1.81582 -42.004314,4.49604 -55.390306,5.95604 -13.385991,1.46001 -31.481423,2.4095 -40.21207,2.10997 C 7.2313954,484.97907 6.6175318,484.80825 5.4960994,480.76321 3.632641,474.04167 3.834774,237.05045 5.7222936,215.56112 9.7690578,169.48889 26.062789,124.8667 50.942548,91.720429 82.699737,49.411645 123.07186,25.027849 187.68022,9.1341349 l 21.16264,-5.2060276 306.71061,0.6483272 c 333.86415,0.7057248 312.07837,0.062954 344.87838,10.1753405 36.25847,11.178639 64.85432,27.948245 90.18929,52.890141 33.44759,32.928644 51.22976,65.739464 62.93816,116.130704 7.0228,30.2253 7.9354,77.68335 7.1154,370.00509 l -0.7205,256.80962 -3.6971,16.78494 c -8.6063,39.07308 -17.35182,63.07599 -31.469,86.36926 -26.261,43.33058 -64.5335,73.42882 -116.27034,91.43717 -32.11825,11.1797 -44.469,12.7893 -110.87572,14.45 -68.49663,1.7131 -468.86959,1.6212 -520.33321,-0.1193 z"
   id="path945"
   transform="matrix(0.22298926,0,0,0.22298926,183.469,306.829)" /><path
   style="fill:#333333;stroke-width:1.67849;fill-opacity:1"
   d="m 236.46958,1019.4697 c -38.91195,-1.3411 -51.70048,-3.4153 -78.54993,-12.7401 C 120.41236,993.70336 95.007366,978.14337 69.386478,952.50506 44.878656,927.98056 30.856026,905.68825 19.181098,872.69162 6.0447651,835.56465 4.0079734,814.48424 4.0022013,715.59293 3.9976527,637.66672 3.1399574,643.21272 16.028735,637.82744 c 3.31816,-1.38642 25.950189,-4.78865 50.293396,-7.56049 39.559279,-4.50444 66.892389,-7.32772 175.182929,-18.09491 16.61709,-1.65221 40.70434,-3.00402 53.52723,-3.00402 22.92869,0 23.36525,0.0695 26.39281,4.19624 1.69319,2.30793 4.19438,10.69395 5.5582,18.6356 3.039,17.69604 14.87019,106.03583 18.58228,138.74786 l 2.71699,23.94315 -9.87225,13.82297 c -13.499,18.90107 -14.65904,22.31944 -14.65904,43.1966 0,16.4661 0.32318,18.17405 4.91814,25.9921 7.34697,12.50042 18.20369,23.23498 29.93243,29.5956 l 10.46877,5.67734 22.65968,-0.26973 c 15.34257,-0.18262 45.42394,-3.01767 93.15643,-8.7796 38.77321,-4.68043 89.37981,-10.78853 112.45911,-13.57355 108.6229,-13.10771 137.17805,-17.64353 149.96092,-23.82042 10.45395,-5.05151 24.0352,-19.0858 29.68384,-30.67404 4.42844,-9.08501 4.8635,-11.56256 4.86333,-27.69516 -1.8e-4,-16.11148 -0.42417,-18.53358 -4.67717,-26.71926 -5.55093,-10.6838 -20.41581,-25.93611 -32.12343,-32.96068 l -8.39247,-5.03548 -2.87531,-22.65967 C 705.86956,500.78824 695.20536,416.12635 684.67336,330.89133 l -12.60785,-102.03477 9.03238,-10.64729 c 12.73179,-15.00814 17.28557,-23.5836 19.58272,-36.8774 5.28083,-30.56033 -8.04857,-58.28285 -33.85187,-70.40528 -18.82299,-8.84306 -25.62959,-8.45303 -173.54954,9.94467 -177.09268,22.02609 -204.8076,26.17927 -217.32988,32.56765 -7.54963,3.85154 -22.35623,19.70201 -27.27101,29.19363 -2.86617,5.53525 -3.72508,10.77447 -4.31241,26.30494 -0.70048,18.52329 -0.52719,19.80298 3.86413,28.5344 2.95291,5.87138 10.22779,14.67375 20.33707,24.60723 8.65675,8.50623 15.73956,15.72833 15.73956,16.04914 0,0.32081 3.73366,32.26028 8.29704,70.97661 12.41453,105.32686 12.26264,101.08575 3.77708,105.47381 -8.76874,4.53448 -37.84446,8.12812 -232.796108,28.77258 -13.847578,1.46638 -32.320671,2.42813 -41.051318,2.13718 C 7.2255866,484.97831 6.6179574,484.80979 5.4960994,480.76321 3.6247079,474.01305 3.8350821,237.03511 5.7315294,215.56112 11.00853,155.8082 34.317226,104.31082 72.935855,67.082359 102.93129,38.16668 138.33995,20.470369 190.33397,8.4098923 l 19.32567,-4.482761 306.30221,0.6438753 c 337.29702,0.7090292 312.78938,-0.080296 347.91201,11.2053094 36.33517,11.675215 62.71212,27.788947 89.42038,54.62707 31.86002,32.014944 50.61216,67.591694 61.07616,115.874304 6.1214,28.2451 7.0989,85.17175 6.3105,367.50002 l -0.7219,258.48811 -5.0984,21.84823 c -6.3444,27.18823 -12.1418,44.72816 -20.57412,62.24677 -29.3972,61.07446 -86.45608,103.25415 -160.02494,118.29538 -14.17166,2.8974 -27.04265,3.7327 -76.6195,4.9725 -69.61733,1.7411 -469.58136,1.619 -521.17246,-0.1591 z"
   id="path947"
   transform="matrix(0.22298926,0,0,0.22298926,183.469,306.829)" /><path
   style="fill:#333333;stroke-width:1.67849;fill-opacity:1"
   d="m 236.46958,1019.4697 c -38.8385,-1.3385 -51.59393,-3.4009 -78.54993,-12.7005 C 79.432675,979.69178 29.779526,924.86435 10.65403,844.15722 5.5833955,822.75979 3.998126,792.38077 3.998126,716.60805 c 0,-79.0837 -0.8720386,-73.38954 12.067294,-78.79594 6.787564,-2.83603 77.399062,-11.12658 171.72783,-20.16271 34.15735,-3.27205 68.57568,-6.70778 76.48515,-7.63491 7.90949,-0.92715 23.14994,-1.68572 33.86768,-1.68572 18.79427,0 19.6043,0.14939 22.79238,4.20233 1.94932,2.47818 4.39388,10.22566 5.95813,18.88306 3.13904,17.37296 12.82979,89.31995 17.86291,132.61951 l 3.56356,30.65708 -8.72114,11.99047 c -13.70202,18.83858 -15.66542,24.44653 -15.76521,45.02922 -0.0802,16.55136 0.21467,18.13506 4.84447,26.01666 6.729,11.45515 20.34448,24.70013 31.2981,30.44646 8.81357,4.62363 9.78369,4.75873 31.75102,4.42149 14.78919,-0.22703 47.14561,-3.29371 93.15643,-8.8292 38.77321,-4.66472 86.35852,-10.35666 105.74513,-12.64873 111.19862,-13.14692 143.52085,-18.33988 157.15492,-25.24878 10.24924,-5.19368 23.49937,-18.4697 28.27066,-28.32587 7.7815,-16.07443 7.65757,-44.58932 -0.25238,-58.06836 -6.99549,-11.92075 -16.96029,-22.0891 -28.50481,-29.08708 l -10.70401,-6.48849 -6.38998,-50.58032 c -3.5145,-27.81918 -12.32884,-97.4103 -19.58744,-154.64696 -7.25861,-57.23665 -18.93989,-150.33635 -25.95843,-206.88821 L 671.89943,228.96146 681.691,217.3291 c 12.07905,-14.34992 16.85755,-23.69727 19.10084,-37.36362 3.27058,-19.92475 -2.02015,-39.92235 -14.47975,-54.72974 -6.83843,-8.12701 -22.82975,-16.99923 -34.27238,-19.01481 -10.68857,-1.88275 -37.50109,-0.29314 -75.67505,4.48651 -10.61647,1.32925 -59.33477,7.36646 -108.26288,13.41602 -139.95422,17.3042 -175.35125,22.625 -190.29666,28.60497 -8.39261,3.35806 -23.46315,19.18741 -28.83764,30.28964 -3.09761,6.39881 -4.0319,11.67279 -4.62714,26.11998 -0.70844,17.19424 -0.50905,18.58816 3.97503,27.78874 3.2033,6.57267 9.67428,14.60127 20.12994,24.97546 13.59915,13.49316 15.53517,16.15475 16.4826,22.65967 0.59044,4.05388 4.42934,36.07294 8.53088,71.15347 11.43526,97.80581 11.33789,94.51125 2.92199,98.86328 -8.84498,4.57391 -28.63783,7.04165 -223.56439,27.87356 -18.001851,1.92387 -40.251435,3.27505 -49.443519,3.00259 C 7.1570629,484.97419 6.6253801,484.83464 5.4963696,480.76321 3.6247863,474.01392 3.8349183,237.03697 5.7315294,215.56112 11.00853,155.8082 34.317226,104.31082 72.935855,67.082359 103.4663,37.650928 139.73612,19.754524 193.66798,7.5102144 l 15.94569,-3.6201985 306.3252,0.662433 c 340.13118,0.735539 313.96894,-0.1672956 350.80149,12.1058361 29.85277,9.947375 50.5024,21.587993 74.26969,41.867357 40.09441,34.210422 64.76985,79.533478 75.53175,138.734288 l 3.7846,20.81893 V 514.3331 810.58733 l -4.8076,20.98118 c -6.6499,29.02194 -13.1428,48.3033 -22.89133,67.97902 -29.34924,59.23631 -85.7005,100.18856 -158.43928,115.14287 -14.12038,2.903 -26.79456,3.7297 -75.7069,4.9383 -69.4328,1.7157 -471.16618,1.5933 -522.01171,-0.1591 z"
   id="path949"
   transform="matrix(0.22298926,0,0,0.22298926,183.469,306.829)" /></g>
</svg>
