<?xml version="1.0" encoding="UTF-8" standalone="no"?>
<svg
   xmlns:dc="http://purl.org/dc/elements/1.1/"
   xmlns:cc="http://creativecommons.org/ns#"
   xmlns:rdf="http://www.w3.org/1999/02/22-rdf-syntax-ns#"
   xmlns:svg="http://www.w3.org/2000/svg"
   xmlns="http://www.w3.org/2000/svg"
   viewBox="0 0 7680 2466.5984"
   height="2466.5984"
   width="7680"
   xml:space="preserve"
   id="svg2"
   version="1.1"><metadata
     id="metadata8"><rdf:RDF><cc:Work
         rdf:about=""><dc:format>image/svg+xml</dc:format><dc:type
           rdf:resource="http://purl.org/dc/dcmitype/StillImage" /><dc:title></dc:title></cc:Work></rdf:RDF></metadata><defs
     id="defs6"><clipPath
       id="clipPath24"
       clipPathUnits="userSpaceOnUse"><path
         id="path22"
         d="M 0,841.89 H 595.28 V 0 H 0 Z" /></clipPath></defs><g
     transform="matrix(1.3333333,0,0,-1.3333333,912.37675,2667.0334)"
     id="g10"><g
       transform="matrix(15.385713,0,0,15.385713,-2226.0818,-2162.5496)"
       id="g200"><g
         id="g58"
         transform="translate(396.4302,186.204)"><path
           d="m 0,0 v -0.001 0 z"
           style="fill:#333333;fill-opacity:1;fill-rule:nonzero;stroke:none"
           id="path60" /></g><g
         id="g62"
         transform="translate(100.4258,198.5889)"><path
           d="m 0,0 c 10.926,-0.972 17.117,-1.326 17.171,11.262 v 60.711 h 16.8 V 3.936 c 0,-5.64 -0.372,-13.8 -6.372,-17.64 -6.36,-4.079 -21.575,-3.455 -27.815,0.624 z"
           style="fill:#ffffff;fill-opacity:1;fill-rule:nonzero;stroke:none"
           id="path64" /></g><g
         id="g66"
         transform="translate(143.2661,246.4424)"><path
           d="m 0,0 h 16.799 v -42.682 c 0,-6.336 2.832,-8.616 7.038,-8.616 6.762,0 10.452,1.74 15.401,5.521 V 0 h 16.8 v -63.717 h -13.5 l -3.3,6.779 C 32.909,-60.741 28.739,-64.797 19.019,-64.797 4.188,-64.797 0,-54.562 0,-42.418 Z"
           style="fill:#ffffff;fill-opacity:1;fill-rule:nonzero;stroke:none"
           id="path68" /></g><g
         id="g70"
         transform="translate(233.4219,196.3623)"><path
           d="m 0,0 c 6.312,0 11.298,1.626 14.874,3.937 v 31.54 C 10.488,37.175 5.808,37.871 0,37.871 c -5.304,0 -8.357,-3.03 -8.357,-19.289 C -8.357,4.368 -5.423,0 0,0 m -4.355,51.04 c 5.399,0 13.463,-1.481 19.294,-4.14 V 74.202 H 31.685 V -13.637 H 17.868 l -2.994,6.42 c -3.978,-3.204 -11.664,-7.14 -19.229,-7.14 -15.684,0 -20.802,12.425 -20.802,32.279 0,20.345 3.144,33.118 20.802,33.118"
           style="fill:#ffffff;fill-opacity:1;fill-rule:nonzero;stroke:none"
           id="path72" /></g><g
         id="g74"
         transform="translate(298.6558,163.8262)"><path
           d="m 0,0 h 9.947 c 6.025,0 6.744,2.97 6.744,6.695 v 4.651 c 0,3.593 -1.481,5.787 -6.246,5.838 H -2.478 c -2.337,0 -5.07,0.431 -5.07,0.431 V 7.025 C -7.548,0.708 -4.2,0 0,0 m -0.054,50.278 h 6.743 c 6.367,0 8.184,4.127 8.077,9.9 -0.162,6.62 -2.281,9.179 -8.197,9.179 H 0.126 c -6.804,0 -7.92,-4.427 -7.92,-9.179 0,-5.88 1.8,-9.9 7.74,-9.9 m -17.513,-7.752 c -5.28,3.36 -7.026,11.291 -7.026,17.652 0,15.239 7.722,22.678 22.079,22.678 H 36.244 V 72.837 l -7.079,-2.16 c 1.122,-2.652 2.399,-4.842 2.399,-12.48 0,-9.179 -3.815,-21.419 -21.778,-21.419 h -14.76 c -1.92,0 -4.853,-0.017 -4.853,-2.807 0,-2.79 2.196,-3.222 4.853,-3.222 h 19.553 c 11.523,0 18.845,-6.006 18.845,-18.869 V 4.979 C 33.424,-4.2 29.165,-13.5 13.445,-13.5 H -4.554 c -11.279,0 -19.859,5.868 -19.859,18.479 v 8.088 l 5.592,5.82 c -3.36,1.872 -6.156,6.216 -6.156,12.294 0,5.015 2.226,9.725 7.41,11.345"
           style="fill:#ffffff;fill-opacity:1;fill-rule:nonzero;stroke:none"
           id="path76" /></g><g
         id="g78"
         transform="translate(414.1961,238.7289)"><path
           d="m 0,0 c -0.061,3.039 2.213,5.745 5.293,6.131 l 31.503,3.952 c 3.292,0.412 6.323,-1.943 6.735,-5.234 0.3,-2.387 -0.901,-4.762 -2.836,-6.048 -0.16,-0.123 -0.142,-0.353 -0.118,-0.549 l 6.13,-48.87 c 0.029,-0.23 0.109,-0.484 0.32,-0.567 2.167,-0.697 3.858,-2.591 4.159,-4.988 0.369,-2.944 -1.479,-5.673 -4.227,-6.513 -0.414,-0.141 -0.838,-0.256 -1.28,-0.311 L 14.648,-66.89 c -3.16,-0.396 -6.258,1.587 -6.913,4.703 -0.382,1.821 0.11,3.589 1.153,4.931 0.064,0.085 0.132,0.166 0.2,0.248 0.056,0.065 0.108,0.132 0.167,0.195 0.183,0.201 0.38,0.388 0.589,0.563 0.219,0.206 0.345,0.49 0.307,0.79 L 8.05,-38.71 c -0.001,0.004 -0.003,0.007 -0.004,0.012 -0.154,0.865 -1.187,1.448 -2.308,1.306 l -13.34,-1.568 c -1.101,-0.138 -1.951,-0.904 -2.001,-1.853 v -12.813 c 0,-15.997 9.479,-23.796 24.47,-23.796 H 36.73 c 14.738,0 23.657,7.933 23.657,23.796 v 49.993 c 0,12.785 -5.633,23.796 -23.583,23.796 H 14.94 c -14.864,0 -24.543,-8.518 -24.543,-24.53 v -19.771 c 0.019,-0.903 1.049,-1.415 2.021,-1.298 l 11.869,1.653 c 0.531,0.066 0.985,0.306 1.298,0.678 0.281,0.333 0.409,0.732 0.364,1.123 -10e-4,0.005 0,0.009 -10e-4,0.013 l 0.002,0.001 -1.992,15.88 c -0.021,0.164 -0.04,0.363 -0.186,0.438 -0.779,0.344 -1.478,0.86 -2.059,1.496 -0.911,0.913 -1.511,2.069 -1.684,3.44 z"
           style="fill:#ffffff;fill-opacity:1;fill-rule:nonzero;stroke:none"
           id="path80" /></g><g
         id="g82"
         transform="translate(422.8633,232.3437)"><path
           d="m 0,0 c -0.5,0 -0.932,0.374 -0.992,0.882 -0.066,0.548 0.326,1.046 0.875,1.111 l 27.13,3.232 C 27.564,5.288 28.059,4.897 28.124,4.35 28.189,3.801 27.798,3.304 27.249,3.238 L 0.119,0.007 C 0.079,0.002 0.039,0 0,0"
           style="fill:#ffffff;fill-opacity:1;fill-rule:nonzero;stroke:none"
           id="path84" /></g><g
         id="g86"
         transform="translate(429.2383,182.8325)"><path
           d="m 0,0 c -0.5,0 -0.932,0.374 -0.992,0.882 -0.066,0.548 0.326,1.046 0.875,1.111 L 27.014,5.225 C 27.563,5.287 28.06,4.898 28.125,4.35 28.19,3.801 27.799,3.304 27.25,3.238 L 0.119,0.007 C 0.079,0.002 0.039,0 0,0"
           style="fill:#ffffff;fill-opacity:1;fill-rule:nonzero;stroke:none"
           id="path88" /></g><g
         id="g90"
         transform="translate(366.341,233.3364)"><path
           d="m 0,0 c 8.013,1.005 9.334,-0.316 10.335,-8.3 0.378,-3.012 -1.211,-4.947 -4.682,-5.382 l -15.8,-1.982 C -11.991,-2.024 -8.804,-1.104 0,0 m 31.259,-42.936 -0.73,5.815 c -0.083,0.665 -0.495,1.757 -1.469,1.697 l -31.59,-4.224 c -2.617,-0.325 -5.024,1.552 -5.349,4.169 l -0.489,3.944 c -0.324,2.618 1.552,5.025 4.17,5.349 l 20.06,2.689 c 9.153,1.807 12.53,6.227 11.249,16.437 -2.629,20.955 -11.391,21.972 -29.679,19.678 -20.05,-2.515 -27.043,-8.085 -23.635,-35.255 2.91,-23.193 8.84,-31.906 24.913,-29.89 9.883,1.24 22.73,2.577 31.236,7.024 1.509,0.873 1.446,1.506 1.313,2.567"
           style="fill:#ffffff;fill-opacity:1;fill-rule:nonzero;stroke:none"
           id="path92" /></g></g></g></svg>