<?xml version="1.0" encoding="UTF-8" standalone="no"?>
<svg
   xmlns:dc="http://purl.org/dc/elements/1.1/"
   xmlns:cc="http://creativecommons.org/ns#"
   xmlns:rdf="http://www.w3.org/1999/02/22-rdf-syntax-ns#"
   xmlns:svg="http://www.w3.org/2000/svg"
   xmlns="http://www.w3.org/2000/svg"
   xmlns:sodipodi="http://sodipodi.sourceforge.net/DTD/sodipodi-0.dtd"
   xmlns:inkscape="http://www.inkscape.org/namespaces/inkscape"
   height="1024"
   width="1024"
   xml:space="preserve"
   enable-background="new 0 0 595.28 841.89"
   viewBox="0 0 1023.9999 1023.9998"
   y="0px"
   x="0px"
   id="Layer_1"
   version="1.1"
   sodipodi:docname="white.svg"
   inkscape:version="1.0.1 (c497b03c, 2020-09-10)"><sodipodi:namedview
   pagecolor="#ffffff"
   bordercolor="#666666"
   borderopacity="1"
   objecttolerance="10"
   gridtolerance="10"
   guidetolerance="10"
   inkscape:pageopacity="0"
   inkscape:pageshadow="2"
   inkscape:window-width="1344"
   inkscape:window-height="795"
   id="namedview19"
   showgrid="false"
   inkscape:zoom="0.59501302"
   inkscape:cx="512"
   inkscape:cy="523.74382"
   inkscape:window-x="0"
   inkscape:window-y="23"
   inkscape:window-maximized="1"
   inkscape:current-layer="XMLID_1_"
   inkscape:document-rotation="0" /><metadata
   id="metadata13"><rdf:RDF><cc:Work
       rdf:about=""><dc:format>image/svg+xml</dc:format><dc:type
         rdf:resource="http://purl.org/dc/dcmitype/StillImage" /><dc:title /></cc:Work></rdf:RDF></metadata><defs
   id="defs11" />
<g
   style="fill:#000000;fill-opacity:1"
   transform="matrix(4.484521,0,0,4.484521,-822.77058,-1375.9808)"
   id="XMLID_1_">
	<path
   style="fill:#ffffff;fill-opacity:1;stroke-width:1.00024"
   d="m 237.915,354.00872 c -0.142,-7.11243 5.177,-13.44148 12.38,-14.34591 l 73.68,-9.24645 c 7.698,-0.96647 14.786,4.54518 15.752,12.24689 0.7,5.58469 -2.108,11.14237 -6.634,14.15282 -0.374,0.28714 -0.333,0.82439 -0.275,1.28361 l 14.337,114.35306 c 0.067,0.53726 0.255,1.13155 0.748,1.32764 5.067,1.62979 9.023,6.06292 9.726,11.67062 0.864,6.88832 -3.458,13.27439 -9.887,15.24134 -0.966,0.32916 -1.958,0.59729 -2.991,0.72635 l -72.578,9.10838 c -7.389,0.92745 -14.634,-3.71278 -16.167,-11.00429 -0.895,-4.26106 0.257,-8.39805 2.696,-11.53856 0.149,-0.1991 0.309,-0.38819 0.468,-0.57928 0.131,-0.15207 0.253,-0.31015 0.391,-0.45722 0.428,-0.46923 0.889,-0.90844 1.378,-1.31763 0.511,-0.48124 0.805,-1.14656 0.717,-1.84789 l -4.914,-39.19287 c -0.002,-0.01 -0.006,-0.019 -0.008,-0.028 -0.361,-2.02497 -2.778,-3.39063 -5.4,-3.05847 l -63.187,6.39308 -4.678,0.47326 v 31.11995 55.68081 h 57.229 115.783 55.329 V 479.48913 362.50981 306.82894 l -55.157,6e-5 H 240.869 l -57.4,-6e-5 v 57.39769 52.54634 l 4.726,-0.52129 59.747,-6.59117 c 1.24,-0.15508 2.302,-0.71635 3.035,-1.58676 0.657,-0.77838 0.956,-1.71183 0.85,-2.62827 -0.001,-0.01 0.001,-0.02 0,-0.03 h 0.003 l -4.659,-37.15889 c -0.048,-0.38419 -0.094,-0.84841 -0.433,-1.0255 -1.823,-0.80339 -3.457,-2.01297 -4.817,-3.50068 -2.132,-2.13603 -3.535,-4.84033 -3.937,-8.04988 z"
   id="XMLID_6_" />
	<g
   style="fill:#ffffff;fill-opacity:1"
   id="XMLID_52_">
		<path
   style="fill:#ffffff;fill-opacity:1"
   d="m 258.186,368.92 c -1.169,0 -2.179,-0.874 -2.321,-2.062 -0.153,-1.282 0.763,-2.446 2.046,-2.599 l 63.452,-7.558 c 1.29,-0.148 2.446,0.765 2.599,2.046 0.153,1.282 -0.763,2.446 -2.046,2.599 l -63.452,7.558 c -0.093,0.01 -0.187,0.016 -0.278,0.016 z"
   id="XMLID_11_" />
	</g>
	<g
   style="fill:#ffffff;fill-opacity:1"
   id="XMLID_53_">
		<path
   style="fill:#ffffff;fill-opacity:1"
   d="m 273.096,484.717 c -1.169,0 -2.179,-0.874 -2.321,-2.062 -0.153,-1.282 0.763,-2.446 2.046,-2.599 l 63.454,-7.558 c 1.286,-0.145 2.446,0.764 2.599,2.046 0.153,1.282 -0.763,2.446 -2.046,2.599 l -63.454,7.558 c -0.093,0.011 -0.187,0.016 -0.278,0.016 z"
   id="XMLID_5_" />
	</g>
</g>
</svg>
